PathFileType	4	(X/Y/Z)	C:/Users/dbak576/Desktop/Duncan Bakke Modelling Files/H27s1/Static_H27s1.trc	
DataRate	CameraRate	NumFrames	NumMarkers	Units	OrigDataRate	OrigDataStartFrame	OrigNumFrames	
200.00	200.00	4	61	mm	200.00	1475	70	
Frame#	Time	LFHD			RFHD			LBHD			RBHD			C7			T10			CLAV			STRN			RBack			LASI			RASI			LPSI			RPSI			RACR1			RUA1			RElbow			RElbowM			RFA1			RWRR			RWRU			RCAR			LACR1			LUA1			LElbow			LElbowM			LFA1			LWRR			LWRU			LCAR			RTH1			RTH3			RTH2			RTH4			RLFC			RMFC			RTB1			RTB3			RTB2			RTB4			RLMAL			RMMAL			RCAL			RMT1			RMT5			RToe			LTH1			LTH3			LTH2			LTH4			LLFC			LMFC			LTB1			LTB3			LTB2			LTB4			LLMAL			LMMAL			LCAL			LMT1			LMT5			LToe			
		X1	Y1	Z1	X2	Y2	Z2	X3	Y3	Z3	X4	Y4	Z4	X5	Y5	Z5	X6	Y6	Z6	X7	Y7	Z7	X8	Y8	Z8	X9	Y9	Z9	X10	Y10	Z10	X11	Y11	Z11	X12	Y12	Z12	X13	Y13	Z13	X14	Y14	Z14	X15	Y15	Z15	X16	Y16	Z16	X17	Y17	Z17	X18	Y18	Z18	X19	Y19	Z19	X20	Y20	Z20	X21	Y21	Z21	X22	Y22	Z22	X23	Y23	Z23	X24	Y24	Z24	X25	Y25	Z25	X26	Y26	Z26	X27	Y27	Z27	X28	Y28	Z28	X29	Y29	Z29	X30	Y30	Z30	X31	Y31	Z31	X32	Y32	Z32	X33	Y33	Z33	X34	Y34	Z34	X35	Y35	Z35	X36	Y36	Z36	X37	Y37	Z37	X38	Y38	Z38	X39	Y39	Z39	X40	Y40	Z40	X41	Y41	Z41	X42	Y42	Z42	X43	Y43	Z43	X44	Y44	Z44	X45	Y45	Z45	X46	Y46	Z46	X47	Y47	Z47	X48	Y48	Z48	X49	Y49	Z49	X50	Y50	Z50	X51	Y51	Z51	X52	Y52	Z52	X53	Y53	Z53	X54	Y54	Z54	X55	Y55	Z55	X56	Y56	Z56	X57	Y57	Z57	X58	Y58	Z58	X59	Y59	Z59	X60	Y60	Z60	X61	Y61	Z61	

9	0.040	-51.20067	-363.96588	1605.29504	43.18085	-363.02521	1600.54712	-81.35539	-517.95355	1560.32007	64.03432	-516.41052	1562.07434	-13.38885	-557.59229	1420.39441	-22.83830	-577.35651	1141.93823	-14.62318	-410.99158	1365.73389	-11.12610	-343.29871	1279.14868	89.03625	-593.64093	1314.41223	-147.24951	-307.63406	968.87549	139.93823	-331.21463	986.37140	-67.66181	-556.74707	976.79285	20.68525	-562.53693	979.46118	107.56458	-504.95966	1417.77869	279.76706	-521.18835	1391.93652	398.09659	-537.46521	1335.01843	396.61679	-458.11047	1283.93115	534.02472	-533.49677	1308.42407	648.82684	-505.94644	1377.97974	654.55103	-489.55933	1309.95435	705.60596	-540.01575	1343.75342	-139.93279	-507.17227	1417.40637	-308.56598	-512.33508	1398.50903	-433.52426	-508.13647	1360.06152	-432.77820	-454.83087	1312.05493	-562.40973	-499.16864	1348.08545	-676.89368	-471.41852	1422.29932	-678.55017	-448.16443	1358.15637	-734.29541	-491.51822	1394.34167	221.16980	-411.96664	756.07568	195.89545	-444.41626	588.79639	185.87735	-374.82983	665.93311	206.25580	-430.05396	671.55560	181.08450	-463.99985	504.48965	32.14425	-456.00336	483.73337	135.88626	-426.42642	344.36563	159.33723	-442.17645	174.79321	202.52505	-460.41776	269.17422	148.54642	-437.50320	254.92543	197.39085	-489.02646	65.70130	116.35025	-464.71088	61.84869	161.12408	-542.28839	25.23923	153.12927	-364.95438	33.44442	230.56577	-403.59195	27.69603	189.76314	-298.15134	27.49700	-245.14816	-410.01913	765.46381	-198.57588	-446.00812	605.18536	-199.78146	-372.53085	681.12030	-216.81166	-428.52057	687.27209	-177.32906	-469.09421	485.16443	-28.74252	-481.15353	473.71896	-118.76151	-433.22952	339.89246	-139.10123	-450.71683	169.43025	-184.41928	-465.54974	261.35837	-127.49142	-442.95764	254.05087	-172.50597	-496.43280	62.49263	-89.53706	-473.57584	56.78918	-133.34953	-553.57214	28.69456	-123.49146	-372.44275	27.54550	-199.09013	-410.95261	25.04018	-160.53259	-305.80637	22.65965 
10	0.045	-51.15875	-363.96814	1605.27795	43.20770	-363.07465	1600.46936	-81.29129	-518.04938	1560.27612	64.04394	-516.16064	1562.21399	-13.44416	-557.68115	1420.38904	-22.83346	-577.37366	1141.94348	-14.67055	-411.10138	1365.81067	-11.12173	-343.38702	1279.12061	89.10661	-593.62158	1314.37549	-147.24002	-307.68301	968.88574	139.95596	-331.21619	986.37347	-67.62325	-556.72180	976.79523	20.84368	-562.45935	979.40314	107.57047	-504.99185	1417.79163	279.70963	-521.31458	1391.99658	398.11053	-537.47992	1335.02148	396.68988	-458.05322	1284.01343	534.02496	-533.52222	1308.41431	648.85175	-506.04739	1377.99731	654.58417	-489.65112	1309.88123	705.62457	-540.04865	1343.74463	-139.90175	-507.17026	1417.39941	-308.64432	-512.48242	1398.55103	-433.60104	-508.18005	1360.00940	-432.69711	-454.67792	1312.05347	-562.41278	-499.16031	1348.16174	-676.86432	-471.36624	1422.23730	-679.27820	-448.45056	1358.01013	-734.12732	-491.41034	1394.24988	221.17113	-411.95740	756.06738	195.87527	-444.40411	588.76276	185.89725	-374.82895	665.93274	206.25119	-430.05249	671.54486	181.11005	-464.00150	504.50333	32.08950	-456.09811	483.69391	135.90907	-426.49762	344.35260	159.33551	-442.17310	174.78889	202.53398	-460.42722	269.19565	148.36775	-437.42752	255.07327	197.44199	-489.03705	65.77702	116.35349	-464.72116	61.84926	161.19223	-542.40802	25.30180	153.14694	-364.91608	33.45959	230.61063	-403.53549	27.92098	189.75334	-298.15979	27.49400	-245.13657	-410.00989	765.45929	-198.56068	-445.99048	605.15906	-199.78088	-372.52399	681.12866	-216.82278	-428.52325	687.27863	-177.33322	-469.06113	485.21045	-28.65331	-481.18134	473.84494	-118.74601	-433.23337	339.89355	-139.10696	-450.72308	169.43503	-184.42545	-465.54086	261.36044	-127.48106	-442.96036	254.05247	-172.52858	-496.45316	62.48380	-89.64690	-473.52377	56.77858	-133.24562	-553.59491	28.79688	-123.50580	-372.44412	27.55946	-199.09181	-410.94888	25.04009	-160.56229	-305.81174	22.59309 
11	0.050	-51.09845	-363.97226	1605.24438	43.30191	-362.99725	1600.39844	-81.25334	-518.15833	1560.24243	63.88221	-516.18311	1562.38440	-13.50839	-557.77081	1420.39575	-22.83397	-577.39612	1141.93884	-14.70255	-411.13617	1365.87915	-11.10819	-343.48624	1279.12683	89.18827	-593.62921	1314.35120	-147.23283	-307.72595	968.89954	139.97876	-331.22180	986.38086	-67.57936	-556.71100	976.77515	21.02907	-562.32721	979.31207	107.58504	-505.02887	1417.80054	279.61752	-521.39636	1391.97876	398.12354	-537.49042	1335.02490	396.76965	-458.00696	1284.10254	534.02631	-533.52643	1308.40100	648.85785	-506.13745	1378.01477	654.55292	-489.65707	1309.84106	705.63440	-540.08649	1343.73389	-139.86137	-507.18381	1417.35852	-308.72989	-512.60925	1398.58582	-433.68143	-508.24048	1359.97839	-432.63437	-454.52533	1312.05786	-562.41748	-499.19983	1348.29810	-676.81921	-471.30878	1422.18567	-680.37433	-448.79837	1357.44275	-733.96259	-491.32672	1394.14893	221.17200	-411.95361	756.05688	195.85803	-444.39557	588.72473	185.91389	-374.83170	665.92859	206.24886	-430.04791	671.53516	181.13225	-464.01770	504.51871	32.10769	-456.27899	483.57288	135.93181	-426.56232	344.33853	159.33035	-442.17078	174.79039	202.54446	-460.43430	269.18939	148.19492	-437.33649	255.24428	197.51671	-489.04971	65.91021	116.35970	-464.72397	61.84663	161.26535	-542.59985	25.29776	153.12125	-364.92352	33.35934	230.84729	-403.52756	28.23838	189.75130	-298.15112	27.45340	-245.12291	-410.01001	765.45752	-198.54915	-445.97952	605.13159	-199.78210	-372.51767	681.14301	-216.82410	-428.52780	687.31317	-177.31213	-469.04977	485.25665	-28.69936	-481.16745	473.83362	-118.73444	-433.22055	339.89032	-139.10786	-450.73074	169.43094	-184.44598	-465.52365	261.35220	-127.47185	-442.95837	254.04996	-172.53343	-496.43890	62.40408	-89.66743	-473.50827	56.73926	-133.15291	-553.63177	28.86357	-123.52295	-372.44629	27.57788	-199.08646	-410.95056	25.05120	-160.56891	-305.81381	22.58830 
12	0.055	-51.06282	-364.00589	1605.20361	43.39192	-362.86337	1600.36487	-81.23305	-518.27765	1560.21863	63.49563	-516.30072	1562.56409	-13.57586	-557.85974	1420.40625	-22.84248	-577.41864	1141.92908	-14.72782	-411.17520	1365.92163	-11.08993	-343.57397	1279.15271	89.27856	-593.66864	1314.33948	-147.22336	-307.76224	968.91321	139.98512	-331.23517	986.39563	-67.53975	-556.70264	976.74780	21.22287	-562.21735	979.21649	107.60312	-505.06531	1417.78613	279.52814	-521.40076	1391.87988	398.12952	-537.49615	1335.03467	396.84821	-457.97141	1284.18884	534.01282	-533.52551	1308.40112	648.84601	-506.21140	1378.03418	654.55243	-489.54117	1309.83093	705.63690	-540.12164	1343.72266	-139.80714	-507.20291	1417.31921	-308.79993	-512.66034	1398.55688	-433.75293	-508.30930	1359.97754	-432.59741	-454.36923	1312.03369	-562.45746	-499.24411	1348.40833	-676.78680	-471.27740	1422.13733	-681.66583	-449.21283	1356.54077	-733.84454	-491.24017	1394.03760	221.17064	-411.95447	756.04736	195.84402	-444.39185	588.69379	185.92805	-374.82193	665.91559	206.24681	-430.04202	671.52563	181.14388	-464.03708	504.50708	32.21325	-456.55536	483.38623	135.95029	-426.62189	344.32651	159.32384	-442.17252	174.79861	202.56145	-460.44070	269.17801	148.03981	-437.24881	255.39787	197.57701	-489.03021	65.99464	116.36619	-464.72168	61.84037	161.17532	-542.64252	25.31559	153.07109	-364.97568	33.23989	231.08397	-403.56476	28.30112	189.75516	-298.15561	27.43037	-245.09503	-410.01617	765.45819	-198.54048	-445.97537	605.10956	-199.78572	-372.51398	681.15973	-216.82587	-428.53284	687.35822	-177.27759	-469.05872	485.29108	-28.63115	-481.17014	473.89713	-118.72023	-433.20486	339.89005	-139.10291	-450.73801	169.42101	-184.46399	-465.51953	261.35208	-127.46496	-442.95605	254.04105	-172.51578	-496.41461	62.34499	-89.64017	-473.49808	56.70928	-133.11629	-553.68384	28.87026	-123.54086	-372.44873	27.59224	-199.07492	-410.93561	25.06623	-160.57086	-305.80652	22.56804 
